<svg version="1.1" id="Layer_1" xmlns="http://www.w3.org/2000/svg" xmlns:xlink="http://www.w3.org/1999/xlink" x="0px" y="0px"
	 width="100%" viewBox="0 0 600 600" enable-background="new 0 0 600 600" xml:space="preserve">
<path fill="#FEFEFE" opacity="1.000000" stroke="none" 
	d="
M1.000000,228.000000 
	C1.000000,153.333359 1.030213,79.166656 0.903732,5.000230 
	C0.897893,1.575891 1.576233,0.903696 4.999982,0.905534 
	C202.333206,1.011456 399.666473,1.011449 596.999695,0.905577 
	C600.422791,0.903741 601.096313,1.575691 601.094482,4.999803 
	C600.988525,202.333023 600.988525,399.666290 601.094421,596.999512 
	C601.096252,600.422241 600.424866,601.096313 597.000366,601.094482 
	C399.667145,600.988525 202.333878,600.988586 5.000653,601.094421 
	C1.578372,601.096252 0.901612,600.425659 0.904779,597.000549 
	C1.018373,474.167114 1.000000,351.333527 1.000000,228.000000 
z"/>
<path fill="#343434" opacity="1.000000" stroke="none" 
	d="
M476.030121,305.000000 
	C476.030182,318.997345 475.851135,332.498474 476.136383,345.989807 
	C476.225189,350.191101 475.020355,351.132660 470.921082,351.127686 
	C369.441193,351.004883 267.961121,351.029022 166.481079,351.027557 
	C154.316803,351.027374 142.150345,350.903381 129.989685,351.113983 
	C126.607132,351.172546 125.899544,350.091370 125.902245,346.895660 
	C125.984367,249.581543 125.990128,152.267319 125.884621,54.953220 
	C125.880882,51.502911 126.973740,50.921303 130.092987,50.923286 
	C244.070526,50.995750 358.048157,51.015972 472.025543,50.865044 
	C476.670197,50.858894 476.044128,53.222275 476.043579,56.049347 
	C476.027161,138.866226 476.030151,221.683121 476.030121,305.000000 
z"/>
<path fill="#363636" opacity="1.000000" stroke="none" 
	d="
M161.818939,402.203979 
	C171.300308,401.339722 171.304260,401.339722 171.297897,410.441315 
	C171.287277,425.654816 171.271027,440.868286 171.150818,456.540009 
	C167.776733,459.011444 164.105957,457.424683 160.266876,458.263733 
	C152.904434,449.010956 147.507263,438.675476 141.163116,428.940918 
	C140.001343,427.158295 138.894608,425.339844 136.846039,423.635406 
	C136.846039,431.310272 136.846878,438.985138 136.845505,446.660004 
	C136.845123,448.825714 136.555756,451.036285 136.891174,453.148102 
	C137.675903,458.088654 135.682709,459.343781 130.931137,459.089844 
	C127.282829,458.894867 125.777237,458.448425 125.853317,454.225708 
	C126.141380,438.238037 126.060379,422.241089 125.894272,406.249969 
	C125.860077,402.958038 126.421478,401.845154 130.106323,401.611816 
	C135.448517,401.273529 138.453186,402.977844 141.096237,407.710327 
	C146.839966,417.994537 153.311417,427.872345 160.607132,437.815094 
	C160.607132,426.523132 160.607132,415.231140 160.736801,403.488037 
	C161.155441,402.856506 161.412521,402.638031 161.818939,402.203979 
z"/>
<path fill="#393939" opacity="1.000000" stroke="none" 
	d="
M411.772797,475.747589 
	C408.017700,475.460815 404.687195,475.321899 401.408203,474.835632 
	C398.385681,474.387360 395.707184,472.991089 393.646790,470.666351 
	C391.579529,468.333923 389.729523,465.301208 391.152405,462.554840 
	C392.218018,460.498077 395.418579,462.176666 397.607758,462.362762 
	C400.262909,462.588470 402.692505,462.909302 404.838074,465.582275 
	C407.193115,468.516144 411.303925,467.394012 414.682678,466.446960 
	C417.723511,465.594604 418.538422,463.004211 418.692993,460.208618 
	C418.812073,458.053955 418.716736,455.887390 418.716736,453.558014 
	C418.269470,453.666138 417.750488,453.637207 417.469757,453.881805 
	C407.295502,462.744873 395.121094,459.516785 390.694733,446.763641 
	C388.658783,440.897766 388.884338,434.979736 390.457001,429.088501 
	C393.512756,417.641449 407.967010,411.449707 418.531189,421.644257 
	C419.641205,418.118744 425.284851,415.872070 428.739288,417.505615 
	C429.929504,418.068420 429.827850,419.023102 429.824249,419.995331 
	C429.775513,433.135040 430.180328,446.297913 429.522552,459.407379 
	C428.950256,470.814056 424.832214,474.145081 411.772797,475.747589 
z"/>
<path fill="#373737" opacity="1.000000" stroke="none" 
	d="
M364.837921,524.000000 
	C364.838654,512.856750 365.019501,502.208801 364.744141,491.572693 
	C364.645294,487.755310 365.782959,486.420624 369.473877,487.029205 
	C370.606964,487.216064 371.814606,487.184296 372.958008,487.029816 
	C375.959930,486.624329 377.069489,487.664520 376.921356,490.844482 
	C376.659637,496.462646 376.848083,502.101776 376.848083,507.562469 
	C378.077179,508.335175 378.572174,507.505463 379.203583,507.046600 
	C389.781464,499.359894 403.169128,503.634216 407.308899,516.091003 
	C409.466888,522.584595 409.410767,529.227539 407.627960,535.761169 
	C403.583466,550.583862 389.807129,554.306335 376.470337,544.259277 
	C374.842377,545.517578 377.490173,548.698425 374.639130,549.079346 
	C371.703735,549.471558 368.641113,549.367188 365.692902,549.003601 
	C364.348053,548.837708 364.877380,547.035339 364.870361,545.952698 
	C364.824005,538.802002 364.841339,531.650940 364.837921,524.000000 
z"/>
<path fill="#393939" opacity="1.000000" stroke="none" 
	d="
M301.209290,457.225830 
	C300.839508,449.189026 300.870697,441.389984 300.584534,433.602631 
	C300.449036,429.916351 300.880676,425.468994 295.310089,425.034912 
	C290.648407,424.671692 287.230743,427.963104 286.985840,433.569000 
	C286.659943,441.028900 286.754944,448.507172 286.528259,456.419189 
	C285.948029,457.004852 285.741028,457.315796 286.006104,457.929810 
	C283.392822,459.970001 280.211609,458.561676 277.181641,458.853699 
	C275.490662,459.016724 275.663910,457.452057 275.663177,456.322968 
	C275.655243,444.190063 275.697876,432.056946 275.636475,419.924377 
	C275.626282,417.907318 276.478546,417.093842 278.302734,417.435547 
	C281.393280,418.014465 286.641296,414.654114 285.989685,422.499603 
	C291.072052,417.453278 296.435883,415.647308 302.810852,416.969543 
	C306.203491,417.673187 308.086975,422.022308 310.936249,421.616791 
	C313.619812,421.234863 315.763794,417.866821 318.948120,417.039459 
	C328.489990,414.560120 335.824249,419.349731 336.394287,429.159210 
	C336.914124,438.105591 336.574677,447.100372 336.691162,456.072815 
	C336.718353,458.168732 336.026520,459.127960 333.815033,458.972504 
	C331.335175,458.798157 328.840485,458.834076 326.164795,458.392456 
	C325.977325,458.006378 326.357208,457.711700 326.357208,457.711700 
	C326.357208,457.711700 326.272156,457.238586 326.073120,457.103271 
	C325.745453,448.678741 325.616821,440.389526 325.557800,431.648376 
	C325.842133,430.626648 325.884277,430.061005 325.415436,429.264282 
	C323.944031,425.783264 321.546112,424.321808 318.161469,425.203461 
	C313.569458,426.399719 312.248016,430.062469 311.761658,434.663940 
	C310.323242,439.538269 311.208862,444.143555 311.029083,448.698059 
	C310.906494,451.803101 311.013580,454.916199 310.270691,458.370605 
	C307.687988,458.785797 305.351257,458.830261 302.665100,458.745117 
	C302.154419,458.147705 301.875854,457.765350 301.209290,457.225830 
z"/>
<path fill="#383838" opacity="1.000000" stroke="none" 
	d="
M349.234863,506.718689 
	C353.431519,510.000977 353.532013,514.450073 353.643860,518.760315 
	C353.794952,524.582275 353.553284,530.413391 353.622589,536.238831 
	C353.671967,540.391357 353.719513,544.581116 355.949554,548.355164 
	C348.214081,550.467163 344.874481,549.641785 342.442780,544.968628 
	C337.781250,548.914673 332.488586,550.851257 326.329193,550.133057 
	C319.650055,549.354187 314.818451,545.044983 314.054993,538.997192 
	C313.190033,532.145264 316.196930,526.986145 323.011749,524.780762 
	C328.053131,523.149292 333.330963,522.257751 338.477936,520.937134 
	C339.817017,520.593506 341.722290,520.672363 341.835419,518.635010 
	C341.950836,516.556519 341.342987,514.632751 339.479889,513.427246 
	C336.003296,511.177704 329.813843,512.264893 327.213837,515.519104 
	C325.707367,517.404663 317.079041,517.625549 315.699493,515.835083 
	C315.021698,514.955444 315.755341,514.251038 316.003174,513.575134 
	C317.439758,509.656952 319.904144,506.367065 323.876373,505.043762 
	C332.341980,502.223663 340.827393,501.811646 349.234863,506.718689 
z"/>
<path fill="#373737" opacity="1.000000" stroke="none" 
	d="
M220.701431,516.404907 
	C218.947327,516.088623 218.762817,515.253845 219.237457,514.152588 
	C220.430817,511.383728 221.825851,508.770538 224.297119,506.859222 
	C230.683716,501.919617 246.479034,501.826874 252.800034,506.705780 
	C255.835144,509.048431 256.937958,512.281128 256.992706,515.911987 
	C257.085571,522.072388 257.039825,528.235046 257.040100,534.396729 
	C257.040253,537.731262 256.666656,541.247864 258.021179,544.275513 
	C260.298370,549.365479 257.738007,549.731628 253.855728,549.221985 
	C251.205490,548.874084 247.835007,550.683105 246.685181,546.041992 
	C246.148544,543.875916 244.557495,546.065613 243.758453,546.657410 
	C239.319580,549.945129 234.332733,550.681030 229.047684,550.015198 
	C222.781982,549.225891 218.382874,544.787659 217.598969,538.640686 
	C216.802032,532.391541 219.807480,526.987732 225.952133,524.958374 
	C231.142899,523.244080 236.589691,522.312683 241.904297,520.960632 
	C243.425888,520.573547 245.361542,520.540039 245.282578,518.114258 
	C245.219604,516.179871 244.847076,514.285522 242.963699,513.466187 
	C239.466354,511.944611 234.823059,510.978943 232.677582,513.951355 
	C229.129089,518.867554 225.298874,517.368591 220.701431,516.404907 
z"/>
<path fill="#373737" opacity="1.000000" stroke="none" 
	d="
M160.326202,523.636963 
	C160.518448,528.683350 160.589737,533.403137 160.560394,538.581421 
	C160.106232,539.833862 159.946503,540.633728 160.559723,541.713867 
	C161.405609,544.179626 162.077240,546.383728 162.940094,549.215271 
	C159.592606,549.215271 156.509552,549.235413 153.427185,549.199036 
	C152.781021,549.191406 151.639450,549.110046 151.565552,548.836182 
	C149.880920,542.591858 147.058533,547.005127 144.788483,548.164429 
	C140.248917,550.482788 135.519516,550.802612 130.713486,549.613647 
	C124.943550,548.186157 121.312691,543.572571 121.017838,537.774414 
	C120.710693,531.734436 123.511047,526.946655 129.321991,525.018921 
	C134.504074,523.299805 139.941452,522.358398 145.245514,520.993530 
	C146.740265,520.608948 148.735306,520.714478 148.866348,518.378174 
	C148.975983,516.423157 148.354996,514.740540 146.742310,513.581055 
	C143.563065,511.295197 136.976028,512.252869 134.450745,515.312866 
	C132.818619,517.290588 124.869751,517.735291 122.928421,516.059082 
	C121.979881,515.240112 122.622093,514.540649 122.917244,513.922180 
	C123.699783,512.282349 124.437637,510.558075 125.550064,509.149109 
	C131.518661,501.589722 150.953308,500.857544 157.594009,507.846313 
	C159.550018,509.904846 160.210968,512.412476 160.228210,515.544067 
	C159.042877,518.407410 160.289795,520.853638 160.326202,523.636963 
z"/>
<path fill="#373737" opacity="1.000000" stroke="none" 
	d="
M441.453735,539.341431 
	C438.244507,531.788086 438.077057,524.398193 440.428711,517.037048 
	C443.248077,508.211700 450.918854,502.974518 460.174927,503.165131 
	C469.851868,503.364410 476.717194,508.443817 479.544525,517.496033 
	C483.118835,528.939819 482.271027,530.160461 470.735779,530.164062 
	C465.241516,530.165771 459.745575,530.241028 454.253784,530.123657 
	C451.812988,530.071472 450.908600,530.725952 451.596924,533.296387 
	C452.618561,537.111450 454.565643,540.035278 458.561279,540.960144 
	C462.539368,541.881042 465.887756,540.843018 467.704987,536.863281 
	C469.404663,533.141052 472.072998,535.695679 474.143097,535.960571 
	C481.027344,536.841553 481.232819,537.827637 476.987061,543.414246 
	C469.286896,553.546204 446.908142,552.689453 441.453735,539.341431 
z"/>
<path fill="#373737" opacity="1.000000" stroke="none" 
	d="
M346.927673,454.943512 
	C342.031219,445.752289 344.983368,438.541199 354.597656,435.764404 
	C358.581573,434.613739 362.701080,433.940155 366.725647,432.918488 
	C368.060333,432.579651 369.942322,432.651581 370.080170,430.601471 
	C370.208435,428.694092 369.727051,427.001648 367.908234,425.903137 
	C364.927734,424.102936 359.236542,424.957489 356.956451,427.613190 
	C355.419006,429.403931 347.788788,429.910950 346.380127,428.305237 
	C345.714020,427.545959 346.079681,426.764801 346.399200,426.000092 
	C347.647125,423.013641 349.315125,420.241119 352.347534,418.894714 
	C360.024323,415.486084 367.851868,415.461121 375.528748,418.844818 
	C379.247375,420.483917 380.718567,423.893250 380.869507,427.793182 
	C381.030334,431.949036 381.005280,436.112793 381.024628,440.273254 
	C381.053131,446.395966 380.328522,452.588318 383.736084,459.437714 
	C378.802307,457.696625 373.535065,461.843079 370.863495,454.989960 
	C366.403107,458.440277 361.510162,460.529083 355.799744,459.730011 
	C352.391327,459.253082 349.401031,457.965485 346.927673,454.943512 
z"/>
<path fill="#373737" opacity="1.000000" stroke="none" 
	d="
M187.988785,455.090576 
	C180.596634,447.569458 178.794266,437.416321 182.959076,428.219574 
	C186.552353,420.284851 194.134674,416.036194 203.704117,416.595276 
	C216.505859,417.343201 225.009903,427.783844 223.462738,440.853455 
	C221.972565,453.441528 211.161652,461.668884 198.778214,459.599060 
	C194.968414,458.962311 191.394867,457.683411 187.988785,455.090576 
z"/>
<path fill="#373737" opacity="1.000000" stroke="none" 
	d="
M465.998718,458.209839 
	C455.421600,461.421417 446.290955,459.370117 441.450531,452.925354 
	C436.188446,445.919189 435.794922,432.622467 440.739380,424.924530 
	C444.958038,418.356567 451.171204,415.998566 458.769348,416.677246 
	C466.108856,417.332825 471.164185,421.076599 474.017212,427.814911 
	C474.532196,429.031281 474.862732,430.340424 475.153473,431.634796 
	C477.333038,441.339478 477.296112,441.364166 467.713104,441.325531 
	C462.380432,441.304047 457.044342,441.445465 451.716125,441.292755 
	C449.076660,441.217102 448.426880,442.323944 449.047607,444.588104 
	C449.996765,448.050568 452.040039,450.471344 455.690033,451.294983 
	C459.006134,452.043243 461.520569,450.972900 463.420563,448.153046 
	C464.704315,446.247833 472.837555,445.803040 474.532227,447.459045 
	C475.514191,448.418640 474.730377,449.258301 474.323059,450.118378 
	C472.618256,453.717896 469.979248,456.380920 465.998718,458.209839 
z"/>
<path fill="#373737" opacity="1.000000" stroke="none" 
	d="
M181.483795,510.445679 
	C184.347778,518.234619 187.042343,525.666443 190.029053,533.903992 
	C193.464066,524.673279 196.594299,516.220886 199.758484,507.781250 
	C200.827728,504.929260 210.350311,502.387390 212.492889,504.392670 
	C213.438416,505.277588 212.612503,506.208130 212.266754,507.080109 
	C207.000641,520.361816 201.688934,533.625671 196.504395,546.939087 
	C195.746078,548.886414 194.567490,549.557007 192.739014,549.193970 
	C189.842392,548.619019 185.711807,551.175659 184.154419,547.534973 
	C178.102325,533.387329 172.538147,519.030945 166.740921,504.624298 
	C178.760117,503.142487 178.760117,503.142487 181.483795,510.445679 
z"/>
<path fill="#373737" opacity="1.000000" stroke="none" 
	d="
M430.250916,490.152191 
	C430.257690,508.608063 430.117340,526.578674 430.381775,544.543335 
	C430.442688,548.680908 429.070984,549.782898 425.355560,549.263489 
	C424.049744,549.080994 422.689148,549.133179 421.368469,549.248657 
	C419.058655,549.450439 418.148743,548.651672 418.160645,546.177368 
	C418.250275,527.543823 418.239899,508.909637 418.186401,490.275818 
	C418.179993,488.044922 418.671387,486.828156 421.215668,487.036407 
	C423.363739,487.212219 425.542664,487.148468 427.699799,487.035522 
	C429.667023,486.932495 430.464050,487.755829 430.250916,490.152191 
z"/>
<path fill="#363636" opacity="1.000000" stroke="none" 
	d="
M304.956879,520.000000 
	C304.958282,528.824890 304.808044,537.153931 305.038361,545.472473 
	C305.126282,548.647949 304.084747,549.328186 301.089386,549.304077 
	C292.957642,549.238708 292.957886,549.387146 292.956879,541.279236 
	C292.954865,524.796021 293.100311,508.310425 292.841187,491.831238 
	C292.777954,487.808197 293.937500,486.404266 297.783020,487.035400 
	C298.431549,487.141815 299.128326,487.144318 299.775970,487.035370 
	C303.777618,486.362274 305.236481,487.722717 305.069641,492.032104 
	C304.715668,501.175842 304.958649,510.342651 304.956879,520.000000 
z"/>
<path fill="#313131" opacity="1.000000" stroke="none" 
	d="
M265.247864,421.197510 
	C265.250305,432.659912 265.022064,443.647888 265.371582,454.617462 
	C265.505615,458.824738 263.742920,459.256836 260.442627,458.934204 
	C257.416718,458.638428 253.850342,460.225800 254.096924,454.423248 
	C254.562744,443.462463 254.377121,432.464539 254.140396,421.488953 
	C254.066650,418.070068 255.271286,416.655365 258.344055,417.499084 
	C260.754242,418.160828 265.320831,414.694550 265.247864,421.197510 
z"/>
<path fill="#343434" opacity="1.000000" stroke="none" 
	d="
M271.482178,549.018433 
	C267.497406,549.306152 268.980713,546.601074 268.969025,545.235291 
	C268.860107,532.468872 268.914001,519.701050 268.988831,506.469604 
	C270.965454,504.511139 273.204224,505.094788 275.326996,505.048920 
	C278.394196,504.982635 279.946289,506.557251 279.961517,509.623474 
	C280.020172,521.450684 280.002716,533.277893 279.974915,545.105164 
	C279.968475,547.847046 278.636139,549.035461 275.970642,548.981750 
	C274.639465,548.954895 273.305664,548.992188 271.482178,549.018433 
z"/>
<path fill="#393939" opacity="1.000000" stroke="none" 
	d="
M275.924683,498.156006 
	C273.369843,497.893890 270.064636,499.137848 269.459900,497.465607 
	C268.457550,494.693878 269.016785,491.338318 269.029205,488.229187 
	C269.033508,487.157440 270.004639,487.073090 270.848267,487.061737 
	C272.170258,487.043915 273.514893,486.896149 274.809601,487.083008 
	C276.800507,487.370331 279.821594,485.775970 280.572571,488.178253 
	C281.419922,490.889008 281.187958,494.130890 280.677094,497.008942 
	C280.293243,499.171631 277.877899,497.799927 275.924683,498.156006 
z"/>
<path fill="#434343" opacity="1.000000" stroke="none" 
	d="
M271.366486,549.141479 
	C271.237213,548.811462 271.452789,548.460876 271.733521,548.397156 
	C279.027161,546.740295 279.030029,546.745422 279.031555,539.003784 
	C279.033142,531.050598 279.030792,523.097412 279.030548,515.144226 
	C279.030273,505.953217 279.030426,505.953217 269.504211,505.993927 
	C271.985809,502.081421 276.091278,504.455719 279.560852,504.404846 
	C281.931274,504.370056 280.844727,507.361755 280.859375,508.965546 
	C280.964447,520.437378 280.678040,531.918152 281.039215,543.379639 
	C281.185577,548.024048 280.233093,550.266968 275.227173,549.325256 
	C274.100769,549.113342 272.905334,549.268372 271.366486,549.141479 
z"/>
<path fill="#393939" opacity="1.000000" stroke="none" 
	d="
M265.237122,403.400330 
	C265.256470,404.172974 265.257996,404.502106 265.258820,404.831238 
	C265.276520,411.906708 263.015289,413.565094 255.976929,411.980347 
	C254.063599,411.549561 254.031219,410.349487 254.226074,409.095734 
	C254.601532,406.680084 252.633759,402.932892 255.566254,402.131256 
	C258.465759,401.338623 262.214264,400.481934 265.237122,403.400330 
z"/>
<path fill="#252525" opacity="1.000000" stroke="none" 
	d="
M310.343445,458.794739 
	C310.013855,452.302765 309.965363,445.863831 310.021820,439.425873 
	C310.034058,438.029480 309.406830,436.411682 311.265442,435.167603 
	C311.646210,441.806610 311.699280,448.578613 311.653412,455.350006 
	C311.645294,456.549957 312.308289,458.063812 310.343445,458.794739 
z"/>
<path fill="#313131" opacity="1.000000" stroke="none" 
	d="
M160.174347,458.618225 
	C162.953110,455.565735 166.719101,457.634918 170.583649,456.996765 
	C171.376877,458.565857 170.524902,458.944397 169.178452,458.924805 
	C166.289200,458.882843 163.399353,458.882996 160.174347,458.618225 
z"/>
<path fill="#252525" opacity="1.000000" stroke="none" 
	d="
M160.552338,523.564758 
	C157.731918,521.745422 159.076355,519.029907 159.835388,516.183472 
	C161.146179,518.291931 160.538910,520.754578 160.552338,523.564758 
z"/>
<path fill="#252525" opacity="1.000000" stroke="none" 
	d="
M160.773285,541.604370 
	C158.879440,541.533325 158.354797,540.689331 160.180557,539.129761 
	C160.577393,539.770996 160.694992,540.502075 160.773285,541.604370 
z"/>
<path fill="#252525" opacity="1.000000" stroke="none" 
	d="
M325.212799,429.307800 
	C326.279053,429.295349 327.406464,429.520508 325.892822,431.049377 
	C325.478699,430.661163 325.329987,430.125854 325.212799,429.307800 
z"/>
<path fill="#252525" opacity="1.000000" stroke="none" 
	d="
M325.793945,457.238098 
	C326.184845,457.154144 326.729309,457.213654 326.148621,457.898315 
	C325.889496,457.840363 325.801666,457.674316 325.793945,457.238098 
z"/>
<path fill="#252525" opacity="1.000000" stroke="none" 
	d="
M300.924622,457.437683 
	C301.289124,457.306183 301.639771,457.629120 302.153015,458.283752 
	C301.625916,458.804413 301.156616,458.565155 300.924622,457.437683 
z"/>
<path fill="#252525" opacity="1.000000" stroke="none" 
	d="
M286.419006,457.792206 
	C286.052948,457.868378 285.822113,457.652191 285.618134,457.413116 
	C285.607574,457.400757 285.827087,457.192139 286.163452,456.967834 
	C286.444855,457.072296 286.502289,457.283752 286.419006,457.792206 
z"/>
<path fill="#252525" opacity="1.000000" stroke="none" 
	d="
M161.665833,401.983032 
	C161.779388,402.288574 161.563141,402.556091 161.106689,402.930298 
	C161.022995,402.672943 161.179535,402.308990 161.665833,401.983032 
z"/>
<path fill="#FEFEFE" opacity="1.000000" stroke="none" 
	d="
M462.120422,286.728851 
	C459.325500,287.168243 459.285980,284.714020 458.439362,283.369141 
	C441.060638,255.762115 423.725281,228.127213 406.557251,200.388962 
	C404.522583,197.101562 403.722626,196.548141 400.932343,199.831085 
	C379.790314,224.706482 358.437195,249.402466 337.147827,274.152618 
	C336.717224,274.653259 336.261871,275.132599 335.384949,276.099335 
	C304.850250,224.202972 274.456024,172.545364 243.701767,120.275818 
	C240.063400,124.355850 236.671249,128.091034 233.353409,131.891113 
	C203.555099,166.020569 173.777313,200.167953 143.945023,234.267639 
	C143.048386,235.292526 142.671127,237.437088 140.283188,236.337646 
	C139.211456,235.048782 139.527313,233.826920 139.527969,232.695023 
	C139.557785,180.728867 139.426086,128.762650 139.855042,76.379074 
	C140.766006,68.732513 140.766006,68.726456 148.311462,68.726318 
	C250.800613,68.724480 353.289825,68.763435 455.778748,68.603348 
	C460.659119,68.595726 461.721893,69.834557 461.711395,74.605759 
	C461.556915,144.764404 461.624146,214.923553 461.777313,285.532593 
	C462.057281,286.149872 462.198700,286.317169 462.120422,286.728851 
z"/>
<path fill="#252525" opacity="1.000000" stroke="none" 
	d="
M139.802475,76.235481 
	C140.205399,76.952072 140.351349,77.942535 140.351303,78.933006 
	C140.349060,130.992371 140.334457,183.051743 140.219635,235.572891 
	C138.446121,234.810181 139.023727,233.004211 139.022858,231.417603 
	C138.995071,181.085571 138.995560,130.753525 139.018478,80.421494 
	C139.019073,79.117386 139.317734,77.813400 139.802475,76.235481 
z"/>
<path fill="#252525" opacity="1.000000" stroke="none" 
	d="
M462.079590,286.889160 
	C461.863647,286.807495 461.826508,286.641785 461.852600,286.229309 
	C462.105682,286.150696 462.304871,286.310455 462.472412,286.498383 
	C462.491608,286.519867 462.334015,286.699005 462.079590,286.889160 
z"/>
<path fill="#F9F9F9" opacity="1.000000" stroke="none" 
	d="
M401.275665,443.118469 
	C400.542389,439.408539 400.404938,436.062927 401.073944,432.785797 
	C401.942871,428.529266 404.271088,425.376404 408.945282,425.047577 
	C413.787903,424.706940 416.703735,427.373047 418.158386,431.817780 
	C419.219849,435.061127 419.264374,438.386719 418.541687,441.673187 
	C417.569336,446.095093 415.115967,449.353577 410.348511,449.874084 
	C405.667206,450.385162 402.923950,447.705536 401.275665,443.118469 
z"/>
<path fill="#F9F9F9" opacity="1.000000" stroke="none" 
	d="
M381.934631,539.281860 
	C376.782196,534.106567 375.088348,523.832458 378.207306,517.797791 
	C380.038422,514.254883 382.977844,512.188843 387.022552,512.405273 
	C391.024353,512.619446 393.914185,514.738831 395.238770,518.601746 
	C397.014099,523.778992 397.142517,529.069458 395.403961,534.247620 
	C393.395111,540.230713 388.794556,541.968567 381.934631,539.281860 
z"/>
<path fill="#F3F3F3" opacity="1.000000" stroke="none" 
	d="
M327.321991,532.389893 
	C331.236877,529.495544 335.760254,529.631775 339.803375,528.246277 
	C340.727539,527.929565 341.517029,527.869324 341.938416,529.328308 
	C343.645203,535.237610 338.768768,541.885803 332.576111,541.879395 
	C327.442169,541.874084 325.054413,537.891113 327.321991,532.389893 
z"/>
<path fill="#F9F9F9" opacity="1.000000" stroke="none" 
	d="
M229.446335,535.965942 
	C230.477234,529.822571 235.609360,530.270935 239.554810,529.215454 
	C245.553589,527.610657 246.204926,528.396973 245.115784,534.640442 
	C244.332581,539.130127 241.132935,541.100342 237.138718,541.717407 
	C233.128281,542.336975 230.420197,540.411560 229.446335,535.965942 
z"/>
<path fill="#F3F3F3" opacity="1.000000" stroke="none" 
	d="
M145.604324,539.699097 
	C143.778183,540.553955 142.305710,541.511902 140.730850,541.729858 
	C136.996048,542.246826 134.072968,540.715271 133.136993,536.952271 
	C132.229507,533.303772 134.609924,531.407349 137.790863,530.516846 
	C141.282730,529.539307 144.831345,528.764465 148.608917,527.839172 
	C149.131653,532.253845 149.549271,536.306335 145.604324,539.699097 
z"/>
<path fill="#F3F3F3" opacity="1.000000" stroke="none" 
	d="
M460.989166,522.923584 
	C459.017242,522.923706 457.518799,522.930542 456.020386,522.922668 
	C450.979950,522.896240 450.235657,521.636902 452.656036,517.103210 
	C454.601898,513.458313 457.687103,511.815918 461.757721,512.535828 
	C466.108887,513.305359 468.150330,516.357483 468.934204,520.469177 
	C469.245636,522.103027 468.838348,523.014404 466.955933,522.927124 
	C465.128723,522.842346 463.294037,522.918213 460.989166,522.923584 
z"/>
<path fill="#F3F3F3" opacity="1.000000" stroke="none" 
	d="
M357.458923,450.501099 
	C354.584198,445.339600 355.469208,442.910278 360.590057,441.421234 
	C363.567078,440.555603 366.636047,440.006195 369.885590,439.263763 
	C370.303772,443.438812 370.917969,447.452606 366.971405,450.183014 
	C364.079620,452.183685 360.983185,452.967468 357.458923,450.501099 
z"/>
<path fill="#F9F9F9" opacity="1.000000" stroke="none" 
	d="
M203.669922,425.727356 
	C208.807037,426.726654 211.212067,429.982635 211.895523,434.392181 
	C212.699478,439.579102 212.719559,444.826141 208.203506,448.651184 
	C204.943268,451.412567 201.218582,451.605072 197.512939,449.555054 
	C193.092499,447.109558 191.041306,440.432892 192.569717,433.982452 
	C193.908081,428.334015 196.967331,425.956604 203.669922,425.727356 
z"/>
<path fill="#F3F3F3" opacity="1.000000" stroke="none" 
	d="
M452.375458,434.691101 
	C450.151489,434.762238 448.655243,434.767426 448.960327,432.146942 
	C449.420868,428.191528 452.955780,424.912720 457.060730,424.981537 
	C461.071899,425.048767 464.632050,428.534821 464.961945,432.440155 
	C465.121918,434.333984 464.303009,434.715607 462.717957,434.697327 
	C459.421997,434.659332 456.125275,434.688843 452.375458,434.691101 
z"/>
<path fill="#353535" opacity="1.000000" stroke="none" 
	d="
M359.768066,139.284088 
	C350.050079,129.363678 348.309631,117.254074 354.864075,106.865913 
	C361.163330,96.882202 373.428497,92.472458 384.425354,96.509895 
	C394.166107,100.086159 400.032623,107.106575 401.090332,117.504791 
	C402.187042,128.286972 397.914429,136.858109 388.446136,142.089432 
	C378.638947,147.507965 368.966858,146.413696 359.768066,139.284088 
z"/>
</svg>